<?xml version="1.0" standalone="no"?>
<!DOCTYPE svg PUBLIC "-//W3C//DTD SVG 20010904//EN"
 "http://www.w3.org/TR/2001/REC-SVG-20010904/DTD/svg10.dtd">
<svg version="1.0" xmlns="http://www.w3.org/2000/svg"
 width="215.000000pt" height="80.000000pt" viewBox="0 0 215.000000 80.000000"
 preserveAspectRatio="xMidYMid meet">

<g transform="translate(0.000000,80.000000) scale(0.100000,-0.100000)"
fill="#000000" stroke="none">
<path d="M1321 569 c-64 -11 -106 -33 -135 -72 -17 -23 -21 -43 -21 -102 0
-89 17 -118 90 -155 68 -34 200 -35 262 -2 l42 22 3 -23 c2 -17 11 -23 36 -25
l32 -3 0 100 0 101 -115 0 -115 0 0 -30 c0 -29 1 -30 51 -30 61 0 57 -16 -6
-26 -54 -8 -109 1 -130 22 -22 22 -19 77 5 99 24 21 133 26 152 7 17 -17 158
-16 158 1 0 26 -39 74 -74 91 -35 16 -134 37 -166 35 -8 -1 -39 -5 -69 -10z"/>
<path d="M1839 570 c-119 -21 -159 -65 -159 -175 0 -129 60 -178 220 -179 187
-2 264 64 247 211 -6 58 -32 92 -88 120 -50 24 -151 35 -220 23z m154 -122
c12 -6 17 -21 17 -54 0 -43 -2 -46 -37 -61 -50 -21 -121 -12 -145 17 -34 42
-12 105 40 113 34 6 101 -2 125 -15z"/>
<path d="M0 395 l0 -175 205 0 205 0 0 45 0 45 -135 0 c-128 0 -135 1 -135 20
0 18 8 20 133 22 l132 3 3 38 3 37 -135 0 -136 0 0 25 0 25 136 0 135 0 -3 43
-3 42 -202 3 -203 2 0 -175z"/>
<path d="M480 395 l0 -175 65 0 65 0 0 39 c0 44 10 51 72 51 36 0 46 -6 83
-45 l42 -46 67 3 68 3 -36 45 -35 45 23 20 c52 44 62 119 23 176 -33 50 -69
58 -264 58 l-173 1 0 -175z m315 61 c11 -8 16 -19 12 -30 -5 -13 -22 -16 -102
-16 -93 0 -95 1 -95 23 0 13 3 27 7 30 12 13 159 7 178 -7z"/>
<path d="M990 395 l0 -175 65 0 65 0 0 175 0 175 -65 0 -65 0 0 -175z"/>
</g>
</svg>
